<svg width="593" height="709" viewBox="0 0 593 709" fill="none" xmlns="http://www.w3.org/2000/svg">
<g filter="url(#filter0_f_498_215)">
<g clip-path="url(#paint0_diamond_498_215_clip_path)" data-figma-skip-parse="true"><g transform="matrix(-0.16709 0.0503124 0.0501682 0.166611 529.453 851.323)"><rect x="0" y="0" width="1117.48" height="4045.98" fill="url(#paint0_diamond_498_215)" opacity="0.8" shape-rendering="crispEdges"/><rect x="0" y="0" width="1117.48" height="4045.98" transform="scale(1 -1)" fill="url(#paint0_diamond_498_215)" opacity="0.8" shape-rendering="crispEdges"/><rect x="0" y="0" width="1117.48" height="4045.98" transform="scale(-1 1)" fill="url(#paint0_diamond_498_215)" opacity="0.8" shape-rendering="crispEdges"/><rect x="0" y="0" width="1117.48" height="4045.98" transform="scale(-1)" fill="url(#paint0_diamond_498_215)" opacity="0.8" shape-rendering="crispEdges"/></g></g><path d="M308.09 183.8C286.148 190.407 265.718 201.259 247.967 215.736C230.216 230.213 215.491 248.032 204.634 268.175C193.777 288.318 187 310.391 184.689 333.134C182.379 355.877 184.581 378.843 191.169 400.723C197.757 422.603 208.603 442.967 223.086 460.652C237.57 478.338 255.408 492.999 275.583 503.798C295.757 514.598 317.872 521.324 340.666 523.593C363.459 525.861 386.484 523.628 408.427 517.021L358.259 350.411L308.09 183.8Z" data-figma-gradient-fill="{&#34;type&#34;:&#34;GRADIENT_DIAMOND&#34;,&#34;stops&#34;:[{&#34;color&#34;:{&#34;r&#34;:1.0,&#34;g&#34;:1.0,&#34;b&#34;:1.0,&#34;a&#34;:1.0},&#34;position&#34;:0.0},{&#34;color&#34;:{&#34;r&#34;:0.33333334326744080,&#34;g&#34;:0.32941177487373352,&#34;b&#34;:0.93725490570068359,&#34;a&#34;:1.0},&#34;position&#34;:0.65384614467620850},{&#34;color&#34;:{&#34;r&#34;:0.32941177487373352,&#34;g&#34;:0.32941177487373352,&#34;b&#34;:0.94117647409439087,&#34;a&#34;:1.0},&#34;position&#34;:1.0}],&#34;stopsVar&#34;:[{&#34;color&#34;:{&#34;r&#34;:1.0,&#34;g&#34;:1.0,&#34;b&#34;:1.0,&#34;a&#34;:1.0},&#34;position&#34;:0.0},{&#34;color&#34;:{&#34;r&#34;:0.33333334326744080,&#34;g&#34;:0.32941177487373352,&#34;b&#34;:0.93725490570068359,&#34;a&#34;:1.0},&#34;position&#34;:0.65384614467620850},{&#34;color&#34;:{&#34;r&#34;:0.32941177487373352,&#34;g&#34;:0.32941177487373352,&#34;b&#34;:0.94117647409439087,&#34;a&#34;:1.0},&#34;position&#34;:1.0}],&#34;transform&#34;:{&#34;m00&#34;:-334.17907714843750,&#34;m01&#34;:100.33643341064453,&#34;m02&#34;:646.3747558593750,&#34;m10&#34;:100.62474822998047,&#34;m11&#34;:333.22155761718750,&#34;m12&#34;:634.40020751953125},&#34;opacity&#34;:0.80000001192092896,&#34;blendMode&#34;:&#34;NORMAL&#34;,&#34;visible&#34;:true}"/>
</g>
<defs>
<filter id="filter0_f_498_215" x="-0.000198364" y="-7.62939e-05" width="592.227" height="708.252" filterUnits="userSpaceOnUse" color-interpolation-filters="sRGB">
<feFlood flood-opacity="0" result="BackgroundImageFix"/>
<feBlend mode="normal" in="SourceGraphic" in2="BackgroundImageFix" result="shape"/>
<feGaussianBlur stdDeviation="91.9" result="effect1_foregroundBlur_498_215"/>
</filter>
<clipPath id="paint0_diamond_498_215_clip_path"><path d="M308.09 183.8C286.148 190.407 265.718 201.259 247.967 215.736C230.216 230.213 215.491 248.032 204.634 268.175C193.777 288.318 187 310.391 184.689 333.134C182.379 355.877 184.581 378.843 191.169 400.723C197.757 422.603 208.603 442.967 223.086 460.652C237.57 478.338 255.408 492.999 275.583 503.798C295.757 514.598 317.872 521.324 340.666 523.593C363.459 525.861 386.484 523.628 408.427 517.021L358.259 350.411L308.09 183.8Z"/></clipPath><linearGradient id="paint0_diamond_498_215" x1="0" y1="0" x2="500" y2="500" gradientUnits="userSpaceOnUse">
<stop stop-color="white"/>
<stop offset="0.653846" stop-color="#5554EF"/>
<stop offset="1" stop-color="#5454F0"/>
</linearGradient>
</defs>
</svg>
