<svg width="543" height="716" viewBox="0 0 543 716" fill="none" xmlns="http://www.w3.org/2000/svg">
<g filter="url(#filter0_f_494_215)">
<g clip-path="url(#paint0_diamond_494_215_clip_path)" data-figma-skip-parse="true"><g transform="matrix(0.1745 0 0 0.174 164.3 886.8)"><rect x="0" y="0" width="1117.48" height="4045.98" fill="url(#paint0_diamond_494_215)" opacity="0.8" shape-rendering="crispEdges"/><rect x="0" y="0" width="1117.48" height="4045.98" transform="scale(1 -1)" fill="url(#paint0_diamond_494_215)" opacity="0.8" shape-rendering="crispEdges"/><rect x="0" y="0" width="1117.48" height="4045.98" transform="scale(-1 1)" fill="url(#paint0_diamond_494_215)" opacity="0.8" shape-rendering="crispEdges"/><rect x="0" y="0" width="1117.48" height="4045.98" transform="scale(-1)" fill="url(#paint0_diamond_494_215)" opacity="0.8" shape-rendering="crispEdges"/></g></g><path d="M183.8 183.8C206.716 183.8 229.407 188.301 250.578 197.045C271.75 205.789 290.986 218.606 307.19 234.763C323.394 250.921 336.248 270.102 345.017 291.213C353.786 312.324 358.3 334.95 358.3 357.8C358.3 380.65 353.786 403.276 345.017 424.387C336.248 445.498 323.394 464.679 307.19 480.837C290.986 496.994 271.75 509.811 250.578 518.555C229.407 527.299 206.716 531.8 183.8 531.8L183.8 357.8V183.8Z" data-figma-gradient-fill="{&#34;type&#34;:&#34;GRADIENT_DIAMOND&#34;,&#34;stops&#34;:[{&#34;color&#34;:{&#34;r&#34;:1.0,&#34;g&#34;:1.0,&#34;b&#34;:1.0,&#34;a&#34;:1.0},&#34;position&#34;:0.0},{&#34;color&#34;:{&#34;r&#34;:0.33333334326744080,&#34;g&#34;:0.32941177487373352,&#34;b&#34;:0.93725490570068359,&#34;a&#34;:1.0},&#34;position&#34;:0.65384614467620850},{&#34;color&#34;:{&#34;r&#34;:0.32941177487373352,&#34;g&#34;:0.32941177487373352,&#34;b&#34;:0.94117647409439087,&#34;a&#34;:1.0},&#34;position&#34;:1.0}],&#34;stopsVar&#34;:[{&#34;color&#34;:{&#34;r&#34;:1.0,&#34;g&#34;:1.0,&#34;b&#34;:1.0,&#34;a&#34;:1.0},&#34;position&#34;:0.0},{&#34;color&#34;:{&#34;r&#34;:0.33333334326744080,&#34;g&#34;:0.32941177487373352,&#34;b&#34;:0.93725490570068359,&#34;a&#34;:1.0},&#34;position&#34;:0.65384614467620850},{&#34;color&#34;:{&#34;r&#34;:0.32941177487373352,&#34;g&#34;:0.32941177487373352,&#34;b&#34;:0.94117647409439087,&#34;a&#34;:1.0},&#34;position&#34;:1.0}],&#34;transform&#34;:{&#34;m00&#34;:349.0,&#34;m01&#34;:2.1370087299678493e-14,&#34;m02&#34;:-10.200050354003906,&#34;m10&#34;:-2.1308855287921480e-14,&#34;m11&#34;:348.0,&#34;m12&#34;:712.80010986328125},&#34;opacity&#34;:0.80000001192092896,&#34;blendMode&#34;:&#34;NORMAL&#34;,&#34;visible&#34;:true}"/>
</g>
<g filter="url(#filter1_f_494_215)">
<g clip-path="url(#paint1_diamond_494_215_clip_path)" data-figma-skip-parse="true"><g transform="matrix(0.1745 0 0 0.174 164.3 886.8)"><rect x="0" y="0" width="1117.48" height="4045.98" fill="url(#paint1_diamond_494_215)" opacity="0.8" shape-rendering="crispEdges"/><rect x="0" y="0" width="1117.48" height="4045.98" transform="scale(1 -1)" fill="url(#paint1_diamond_494_215)" opacity="0.8" shape-rendering="crispEdges"/><rect x="0" y="0" width="1117.48" height="4045.98" transform="scale(-1 1)" fill="url(#paint1_diamond_494_215)" opacity="0.8" shape-rendering="crispEdges"/><rect x="0" y="0" width="1117.48" height="4045.98" transform="scale(-1)" fill="url(#paint1_diamond_494_215)" opacity="0.8" shape-rendering="crispEdges"/></g></g><path d="M183.8 183.8C206.716 183.8 229.407 188.301 250.578 197.045C271.75 205.789 290.986 218.606 307.19 234.763C323.394 250.921 336.248 270.102 345.017 291.213C353.786 312.324 358.3 334.95 358.3 357.8C358.3 380.65 353.786 403.276 345.017 424.387C336.248 445.498 323.394 464.679 307.19 480.837C290.986 496.994 271.75 509.811 250.578 518.555C229.407 527.299 206.716 531.8 183.8 531.8L183.8 357.8V183.8Z" data-figma-gradient-fill="{&#34;type&#34;:&#34;GRADIENT_DIAMOND&#34;,&#34;stops&#34;:[{&#34;color&#34;:{&#34;r&#34;:1.0,&#34;g&#34;:1.0,&#34;b&#34;:1.0,&#34;a&#34;:1.0},&#34;position&#34;:0.0},{&#34;color&#34;:{&#34;r&#34;:0.33333334326744080,&#34;g&#34;:0.32941177487373352,&#34;b&#34;:0.93725490570068359,&#34;a&#34;:1.0},&#34;position&#34;:0.65384614467620850},{&#34;color&#34;:{&#34;r&#34;:0.32941177487373352,&#34;g&#34;:0.32941177487373352,&#34;b&#34;:0.94117647409439087,&#34;a&#34;:1.0},&#34;position&#34;:1.0}],&#34;stopsVar&#34;:[{&#34;color&#34;:{&#34;r&#34;:1.0,&#34;g&#34;:1.0,&#34;b&#34;:1.0,&#34;a&#34;:1.0},&#34;position&#34;:0.0},{&#34;color&#34;:{&#34;r&#34;:0.33333334326744080,&#34;g&#34;:0.32941177487373352,&#34;b&#34;:0.93725490570068359,&#34;a&#34;:1.0},&#34;position&#34;:0.65384614467620850},{&#34;color&#34;:{&#34;r&#34;:0.32941177487373352,&#34;g&#34;:0.32941177487373352,&#34;b&#34;:0.94117647409439087,&#34;a&#34;:1.0},&#34;position&#34;:1.0}],&#34;transform&#34;:{&#34;m00&#34;:349.0,&#34;m01&#34;:2.1370087299678493e-14,&#34;m02&#34;:-10.200050354003906,&#34;m10&#34;:-2.1308855287921480e-14,&#34;m11&#34;:348.0,&#34;m12&#34;:712.80010986328125},&#34;opacity&#34;:0.80000001192092896,&#34;blendMode&#34;:&#34;NORMAL&#34;,&#34;visible&#34;:true}"/>
</g>
<defs>
<filter id="filter0_f_494_215" x="4.57764e-05" y="4.57764e-05" width="542.1" height="715.6" filterUnits="userSpaceOnUse" color-interpolation-filters="sRGB">
<feFlood flood-opacity="0" result="BackgroundImageFix"/>
<feBlend mode="normal" in="SourceGraphic" in2="BackgroundImageFix" result="shape"/>
<feGaussianBlur stdDeviation="91.9" result="effect1_foregroundBlur_494_215"/>
</filter>
<clipPath id="paint0_diamond_494_215_clip_path"><path d="M183.8 183.8C206.716 183.8 229.407 188.301 250.578 197.045C271.75 205.789 290.986 218.606 307.19 234.763C323.394 250.921 336.248 270.102 345.017 291.213C353.786 312.324 358.3 334.95 358.3 357.8C358.3 380.65 353.786 403.276 345.017 424.387C336.248 445.498 323.394 464.679 307.19 480.837C290.986 496.994 271.75 509.811 250.578 518.555C229.407 527.299 206.716 531.8 183.8 531.8L183.8 357.8V183.8Z"/></clipPath><filter id="filter1_f_494_215" x="4.57764e-05" y="4.57764e-05" width="542.1" height="715.6" filterUnits="userSpaceOnUse" color-interpolation-filters="sRGB">
<feFlood flood-opacity="0" result="BackgroundImageFix"/>
<feBlend mode="normal" in="SourceGraphic" in2="BackgroundImageFix" result="shape"/>
<feGaussianBlur stdDeviation="91.9" result="effect1_foregroundBlur_494_215"/>
</filter>
<clipPath id="paint1_diamond_494_215_clip_path"><path d="M183.8 183.8C206.716 183.8 229.407 188.301 250.578 197.045C271.75 205.789 290.986 218.606 307.19 234.763C323.394 250.921 336.248 270.102 345.017 291.213C353.786 312.324 358.3 334.95 358.3 357.8C358.3 380.65 353.786 403.276 345.017 424.387C336.248 445.498 323.394 464.679 307.19 480.837C290.986 496.994 271.75 509.811 250.578 518.555C229.407 527.299 206.716 531.8 183.8 531.8L183.8 357.8V183.8Z"/></clipPath><linearGradient id="paint0_diamond_494_215" x1="0" y1="0" x2="500" y2="500" gradientUnits="userSpaceOnUse">
<stop stop-color="white"/>
<stop offset="0.653846" stop-color="#5554EF"/>
<stop offset="1" stop-color="#5454F0"/>
</linearGradient>
<linearGradient id="paint1_diamond_494_215" x1="0" y1="0" x2="500" y2="500" gradientUnits="userSpaceOnUse">
<stop stop-color="white"/>
<stop offset="0.653846" stop-color="#5554EF"/>
<stop offset="1" stop-color="#5454F0"/>
</linearGradient>
</defs>
</svg>
