<svg width="543" height="716" viewBox="0 0 543 716" fill="none" xmlns="http://www.w3.org/2000/svg">
<g filter="url(#filter0_f_535_234)">
<g clip-path="url(#paint0_diamond_535_234_clip_path)" data-figma-skip-parse="true"><g transform="matrix(-0.1745 0 0 -0.174 358.3 357.8)"><rect x="0" y="0" width="1005.73" height="1005.75" fill="url(#paint0_diamond_535_234)" opacity="1" shape-rendering="crispEdges"/><rect x="0" y="0" width="1005.73" height="1005.75" transform="scale(1 -1)" fill="url(#paint0_diamond_535_234)" opacity="1" shape-rendering="crispEdges"/><rect x="0" y="0" width="1005.73" height="1005.75" transform="scale(-1 1)" fill="url(#paint0_diamond_535_234)" opacity="1" shape-rendering="crispEdges"/><rect x="0" y="0" width="1005.73" height="1005.75" transform="scale(-1)" fill="url(#paint0_diamond_535_234)" opacity="1" shape-rendering="crispEdges"/></g></g><path d="M358.3 531.8C335.384 531.8 312.693 527.299 291.522 518.555C270.35 509.811 251.114 496.994 234.91 480.837C218.706 464.679 205.853 445.498 197.083 424.387C188.314 403.276 183.8 380.65 183.8 357.8C183.8 334.95 188.314 312.324 197.083 291.213C205.853 270.102 218.706 250.921 234.91 234.763C251.114 218.606 270.35 205.789 291.522 197.045C312.693 188.301 335.384 183.8 358.3 183.8L358.3 357.8V531.8Z" data-figma-gradient-fill="{&#34;type&#34;:&#34;GRADIENT_DIAMOND&#34;,&#34;stops&#34;:[{&#34;color&#34;:{&#34;r&#34;:1.0,&#34;g&#34;:1.0,&#34;b&#34;:1.0,&#34;a&#34;:1.0},&#34;position&#34;:0.0},{&#34;color&#34;:{&#34;r&#34;:0.33333334326744080,&#34;g&#34;:0.32941177487373352,&#34;b&#34;:0.93725490570068359,&#34;a&#34;:1.0},&#34;position&#34;:0.65384614467620850},{&#34;color&#34;:{&#34;r&#34;:0.32941177487373352,&#34;g&#34;:0.32941177487373352,&#34;b&#34;:0.94117647409439087,&#34;a&#34;:1.0},&#34;position&#34;:1.0}],&#34;stopsVar&#34;:[{&#34;color&#34;:{&#34;r&#34;:1.0,&#34;g&#34;:1.0,&#34;b&#34;:1.0,&#34;a&#34;:1.0},&#34;position&#34;:0.0},{&#34;color&#34;:{&#34;r&#34;:0.33333334326744080,&#34;g&#34;:0.32941177487373352,&#34;b&#34;:0.93725490570068359,&#34;a&#34;:1.0},&#34;position&#34;:0.65384614467620850},{&#34;color&#34;:{&#34;r&#34;:0.32941177487373352,&#34;g&#34;:0.32941177487373352,&#34;b&#34;:0.94117647409439087,&#34;a&#34;:1.0},&#34;position&#34;:1.0}],&#34;transform&#34;:{&#34;m00&#34;:-349.0,&#34;m01&#34;:-2.1370087299678493e-14,&#34;m02&#34;:532.8000488281250,&#34;m10&#34;:2.1308855287921480e-14,&#34;m11&#34;:-348.0,&#34;m12&#34;:531.79998779296875},&#34;opacity&#34;:1.0,&#34;blendMode&#34;:&#34;NORMAL&#34;,&#34;visible&#34;:true}"/>
</g>
<defs>
<filter id="filter0_f_535_234" x="4.57764e-05" y="0" width="542.1" height="715.6" filterUnits="userSpaceOnUse" color-interpolation-filters="sRGB">
<feFlood flood-opacity="0" result="BackgroundImageFix"/>
<feBlend mode="normal" in="SourceGraphic" in2="BackgroundImageFix" result="shape"/>
<feGaussianBlur stdDeviation="91.9" result="effect1_foregroundBlur_535_234"/>
</filter>
<clipPath id="paint0_diamond_535_234_clip_path"><path d="M358.3 531.8C335.384 531.8 312.693 527.299 291.522 518.555C270.35 509.811 251.114 496.994 234.91 480.837C218.706 464.679 205.853 445.498 197.083 424.387C188.314 403.276 183.8 380.65 183.8 357.8C183.8 334.95 188.314 312.324 197.083 291.213C205.853 270.102 218.706 250.921 234.91 234.763C251.114 218.606 270.35 205.789 291.522 197.045C312.693 188.301 335.384 183.8 358.3 183.8L358.3 357.8V531.8Z"/></clipPath><linearGradient id="paint0_diamond_535_234" x1="0" y1="0" x2="500" y2="500" gradientUnits="userSpaceOnUse">
<stop stop-color="white"/>
<stop offset="0.653846" stop-color="#5554EF"/>
<stop offset="1" stop-color="#5454F0"/>
</linearGradient>
</defs>
</svg>
