<svg width="607" height="756" viewBox="0 0 607 756" fill="none" xmlns="http://www.w3.org/2000/svg">
<g filter="url(#filter0_f_535_275)">
<g clip-path="url(#paint0_diamond_535_275_clip_path)" data-figma-skip-parse="true"><g transform="matrix(0.16452 0.0581659 -0.0579992 0.164049 47.0833 840.096)"><rect x="0" y="0" width="1117.48" height="4045.98" fill="url(#paint0_diamond_535_275)" opacity="0.8" shape-rendering="crispEdges"/><rect x="0" y="0" width="1117.48" height="4045.98" transform="scale(1 -1)" fill="url(#paint0_diamond_535_275)" opacity="0.8" shape-rendering="crispEdges"/><rect x="0" y="0" width="1117.48" height="4045.98" transform="scale(-1 1)" fill="url(#paint0_diamond_535_275)" opacity="0.8" shape-rendering="crispEdges"/><rect x="0" y="0" width="1117.48" height="4045.98" transform="scale(-1)" fill="url(#paint0_diamond_535_275)" opacity="0.8" shape-rendering="crispEdges"/></g></g><path d="M299.798 183.8C321.404 191.438 341.297 203.245 358.343 218.547C375.389 233.848 389.253 252.344 399.144 272.978C409.036 293.613 414.76 315.982 415.992 338.808C417.223 361.635 413.936 384.472 406.32 406.015C398.703 427.558 386.906 447.386 371.601 464.366C356.296 481.346 337.784 495.147 317.121 504.979C296.458 514.811 274.049 520.482 251.174 521.67C228.299 522.857 205.405 519.537 183.8 511.898L241.799 347.849L299.798 183.8Z" data-figma-gradient-fill="{&#34;type&#34;:&#34;GRADIENT_DIAMOND&#34;,&#34;stops&#34;:[{&#34;color&#34;:{&#34;r&#34;:1.0,&#34;g&#34;:1.0,&#34;b&#34;:1.0,&#34;a&#34;:1.0},&#34;position&#34;:0.0},{&#34;color&#34;:{&#34;r&#34;:0.33333334326744080,&#34;g&#34;:0.32941177487373352,&#34;b&#34;:0.93725490570068359,&#34;a&#34;:1.0},&#34;position&#34;:0.65384614467620850},{&#34;color&#34;:{&#34;r&#34;:0.32941177487373352,&#34;g&#34;:0.32941177487373352,&#34;b&#34;:0.94117647409439087,&#34;a&#34;:1.0},&#34;position&#34;:1.0}],&#34;stopsVar&#34;:[{&#34;color&#34;:{&#34;r&#34;:1.0,&#34;g&#34;:1.0,&#34;b&#34;:1.0,&#34;a&#34;:1.0},&#34;position&#34;:0.0},{&#34;color&#34;:{&#34;r&#34;:0.33333334326744080,&#34;g&#34;:0.32941177487373352,&#34;b&#34;:0.93725490570068359,&#34;a&#34;:1.0},&#34;position&#34;:0.65384614467620850},{&#34;color&#34;:{&#34;r&#34;:0.32941177487373352,&#34;g&#34;:0.32941177487373352,&#34;b&#34;:0.94117647409439087,&#34;a&#34;:1.0},&#34;position&#34;:1.0}],&#34;transform&#34;:{&#34;m00&#34;:329.04089355468750,&#34;m01&#34;:-115.99841308593750,&#34;m02&#34;:-59.437885284423828,&#34;m10&#34;:116.33174133300781,&#34;m11&#34;:328.09808349609375,&#34;m12&#34;:617.88104248046875},&#34;opacity&#34;:0.80000001192092896,&#34;blendMode&#34;:&#34;NORMAL&#34;,&#34;visible&#34;:true}"/>
</g>
<g filter="url(#filter1_f_535_275)">
<g clip-path="url(#paint1_diamond_535_275_clip_path)" data-figma-skip-parse="true"><g transform="matrix(0.16452 0.0581659 -0.0579992 0.164049 53.0831 890.096)"><rect x="0" y="0" width="1117.48" height="4045.98" fill="url(#paint1_diamond_535_275)" opacity="0.8" shape-rendering="crispEdges"/><rect x="0" y="0" width="1117.48" height="4045.98" transform="scale(1 -1)" fill="url(#paint1_diamond_535_275)" opacity="0.8" shape-rendering="crispEdges"/><rect x="0" y="0" width="1117.48" height="4045.98" transform="scale(-1 1)" fill="url(#paint1_diamond_535_275)" opacity="0.8" shape-rendering="crispEdges"/><rect x="0" y="0" width="1117.48" height="4045.98" transform="scale(-1)" fill="url(#paint1_diamond_535_275)" opacity="0.8" shape-rendering="crispEdges"/></g></g><path d="M305.798 233.8C327.403 241.438 347.297 253.245 364.342 268.547C381.388 283.848 395.253 302.344 405.144 322.978C415.036 343.613 420.76 365.982 421.991 388.808C423.223 411.635 419.936 434.472 412.319 456.015C404.703 477.558 392.905 497.386 377.601 514.366C362.296 531.346 343.784 545.147 323.121 554.979C302.458 564.811 280.049 570.482 257.174 571.67C234.299 572.857 211.405 569.537 189.8 561.898L247.799 397.849L305.798 233.8Z" data-figma-gradient-fill="{&#34;type&#34;:&#34;GRADIENT_DIAMOND&#34;,&#34;stops&#34;:[{&#34;color&#34;:{&#34;r&#34;:1.0,&#34;g&#34;:1.0,&#34;b&#34;:1.0,&#34;a&#34;:1.0},&#34;position&#34;:0.0},{&#34;color&#34;:{&#34;r&#34;:0.33333334326744080,&#34;g&#34;:0.32941177487373352,&#34;b&#34;:0.93725490570068359,&#34;a&#34;:1.0},&#34;position&#34;:0.65384614467620850},{&#34;color&#34;:{&#34;r&#34;:0.32941177487373352,&#34;g&#34;:0.32941177487373352,&#34;b&#34;:0.94117647409439087,&#34;a&#34;:1.0},&#34;position&#34;:1.0}],&#34;stopsVar&#34;:[{&#34;color&#34;:{&#34;r&#34;:1.0,&#34;g&#34;:1.0,&#34;b&#34;:1.0,&#34;a&#34;:1.0},&#34;position&#34;:0.0},{&#34;color&#34;:{&#34;r&#34;:0.33333334326744080,&#34;g&#34;:0.32941177487373352,&#34;b&#34;:0.93725490570068359,&#34;a&#34;:1.0},&#34;position&#34;:0.65384614467620850},{&#34;color&#34;:{&#34;r&#34;:0.32941177487373352,&#34;g&#34;:0.32941177487373352,&#34;b&#34;:0.94117647409439087,&#34;a&#34;:1.0},&#34;position&#34;:1.0}],&#34;transform&#34;:{&#34;m00&#34;:329.04089355468750,&#34;m01&#34;:-115.99841308593750,&#34;m02&#34;:-53.438129425048828,&#34;m10&#34;:116.33174133300781,&#34;m11&#34;:328.09808349609375,&#34;m12&#34;:667.88104248046875},&#34;opacity&#34;:0.80000001192092896,&#34;blendMode&#34;:&#34;NORMAL&#34;,&#34;visible&#34;:true}"/>
</g>
<defs>
<filter id="filter0_f_535_275" x="-1.52588e-05" y="4.57764e-05" width="600.044" height="705.705" filterUnits="userSpaceOnUse" color-interpolation-filters="sRGB">
<feFlood flood-opacity="0" result="BackgroundImageFix"/>
<feBlend mode="normal" in="SourceGraphic" in2="BackgroundImageFix" result="shape"/>
<feGaussianBlur stdDeviation="91.9" result="effect1_foregroundBlur_535_275"/>
</filter>
<clipPath id="paint0_diamond_535_275_clip_path"><path d="M299.798 183.8C321.404 191.438 341.297 203.245 358.343 218.547C375.389 233.848 389.253 252.344 399.144 272.978C409.036 293.613 414.76 315.982 415.992 338.808C417.223 361.635 413.936 384.472 406.32 406.015C398.703 427.558 386.906 447.386 371.601 464.366C356.296 481.346 337.784 495.147 317.121 504.979C296.458 514.811 274.049 520.482 251.174 521.67C228.299 522.857 205.405 519.537 183.8 511.898L241.799 347.849L299.798 183.8Z"/></clipPath><filter id="filter1_f_535_275" x="5.99974" y="49.9999" width="600.044" height="705.705" filterUnits="userSpaceOnUse" color-interpolation-filters="sRGB">
<feFlood flood-opacity="0" result="BackgroundImageFix"/>
<feBlend mode="normal" in="SourceGraphic" in2="BackgroundImageFix" result="shape"/>
<feGaussianBlur stdDeviation="91.9" result="effect1_foregroundBlur_535_275"/>
</filter>
<clipPath id="paint1_diamond_535_275_clip_path"><path d="M305.798 233.8C327.403 241.438 347.297 253.245 364.342 268.547C381.388 283.848 395.253 302.344 405.144 322.978C415.036 343.613 420.76 365.982 421.991 388.808C423.223 411.635 419.936 434.472 412.319 456.015C404.703 477.558 392.905 497.386 377.601 514.366C362.296 531.346 343.784 545.147 323.121 554.979C302.458 564.811 280.049 570.482 257.174 571.67C234.299 572.857 211.405 569.537 189.8 561.898L247.799 397.849L305.798 233.8Z"/></clipPath><linearGradient id="paint0_diamond_535_275" x1="0" y1="0" x2="500" y2="500" gradientUnits="userSpaceOnUse">
<stop stop-color="white"/>
<stop offset="0.653846" stop-color="#5554EF"/>
<stop offset="1" stop-color="#5454F0"/>
</linearGradient>
<linearGradient id="paint1_diamond_535_275" x1="0" y1="0" x2="500" y2="500" gradientUnits="userSpaceOnUse">
<stop stop-color="white"/>
<stop offset="0.653846" stop-color="#5554EF"/>
<stop offset="1" stop-color="#5454F0"/>
</linearGradient>
</defs>
</svg>
